<?xml version="1.0" encoding="UTF-8"?>
<svg id="Layer_2" data-name="Layer 2" xmlns="http://www.w3.org/2000/svg" viewBox="0 0 365.28 182.02">
  <g id="Layer_2-2" data-name="Layer 2">
    <g id="Layer_1-2" data-name="Layer 1-2">
      <path d="M32.08,182h0c-20.32,0-35.62-18.7-31.36-38.56,7.27-33.92,24.13-65.06,49.22-90.15C84.29,18.92,130.01,0,178.65,0c32.14,0,63.73,8.48,91.36,24.53,21.7,12.6,40.6,29.62,55.42,49.79,5.61,7.63,3.45,18.42-4.69,23.27l-27.67,16.46c-6.97,4.15-15.92,2.4-20.87-4.02-9.36-12.14-21.04-22.42-34.33-30.14-17.88-10.38-38.36-15.87-59.22-15.87-56.42,0-103.72,39.8-115.29,92.8-3.21,14.71-16.23,25.2-31.28,25.2v-.02Z" style="fill: #fff;"/>
      <circle cx="331.28" cy="147.97" r="34" style="fill: #fff;"/>
    </g>
  </g>
</svg>